<svg width="345" height="54" viewBox="0 0 345 54" fill="none" xmlns="http://www.w3.org/2000/svg"><g clip-path="url(#a)"><path d="M35.89 39.254c.187.602.45 1.167.676 1.77l3.834 9.825c.075.151.075.189-.113.189h-8.42c-.15 0-.187-.038-.225-.189-.677-1.769-1.39-3.5-2.067-5.27-.075-.188-.15-.264-.339-.264h-14.96c-.188 0-.263.038-.338.226a297.712 297.712 0 0 0-1.992 5.233c-.075.188-.15.226-.338.226H3.226c-.188 0-.188 0-.113-.188.376-.941.714-1.883 1.09-2.824 1.691-4.291 3.345-8.62 5.037-12.913 1.578-3.99 3.12-7.98 4.698-12.01 1.579-4.065 3.158-8.093 4.736-12.16.827-2.107 1.654-4.253 2.481-6.361l.564-1.469c.037-.037.037-.075.075-.113 0 .226.038.415.113.565.263.602.488 1.242.714 1.845.263.715.564 1.43.827 2.108.3.753.601 1.544.902 2.297.263.715.564 1.43.827 2.145.263.716.564 1.431.827 2.146.15.34.263.678.413 1.017.15.527.376 1.016.564 1.506 1.353 3.5 2.744 7.04 4.135 10.54.037.038.037.114.075.151.15.49.376.942.526 1.431.263.715.564 1.43.827 2.146.3.753.602 1.543.902 2.296.263.716.564 1.43.827 2.146.3.753.601 1.544.902 2.297.188.527.414 1.054.64 1.58l.074.076zm-7.142-12.16h-4.962c-.15 0-.225-.038-.263-.188-.564-1.43-1.09-2.824-1.654-4.254-.037-.113-.113-.226-.15-.377-.075.038-.075.113-.113.15-.564 1.47-1.165 2.975-1.729 4.443-.038.15-.113.189-.3.189h-4.7c-.074 0-.15-.038-.225.037a.88.88 0 0 0 .263.264c1.128 1.016 2.256 2.07 3.383 3.087.076.075.113.15.076.3-.602 1.507-1.166 2.975-1.767 4.48-.038.039-.075.114-.038.19.038-.038.113-.038.15-.076 1.617-.79 3.196-1.581 4.812-2.372a.282.282 0 0 1 .338 0l4.736 2.372c.075.038.113.075.188.075a.535.535 0 0 0-.075-.226 150.296 150.296 0 0 0-1.73-4.367c-.074-.15-.037-.263.076-.376 1.015-.941 2.067-1.883 3.082-2.824.226-.15.451-.301.602-.527z" fill="#0B096F"/><path d="M42.956 27.32c-.038-.264-.15-.49-.263-.715a1368.303 1368.303 0 0 1-4.36-11.181c-.076-.189-.076-.189.112-.189h36.498c-.15.302-.3.603-.413.904-1.203 2.598-2.444 5.195-3.647 7.83a126.545 126.545 0 0 0-1.503 3.276c-.075.15-.15.15-.3.15H43.255c-.112-.037-.225-.037-.3-.075 0 .038 0 .038 0 0zM26.455 15.122c-.15-.338-.263-.677-.414-1.016-.3-.715-.564-1.43-.827-2.146-.263-.715-.563-1.43-.826-2.146-.301-.753-.602-1.543-.903-2.296-.263-.716-.563-1.43-.827-2.109-.225-.64-.488-1.242-.714-1.844-.113-.189-.15-.377-.225-.565h11.915c.188 0 .263.038.338.226l3.045 8.019c.451 1.242.94 2.447 1.39 3.69.076.187.076.187-.15.187H26.455z" fill="#E81129"/><path d="M35.852 39.179c-.226-.527-.414-1.054-.64-1.582-.3-.752-.6-1.543-.901-2.296-.264-.715-.564-1.43-.827-2.146-.301-.753-.602-1.543-.902-2.296-.264-.716-.564-1.43-.827-2.146-.188-.49-.376-.941-.527-1.43h11.728c0 .037 0 .037.037.037-.037.075 0 .113.038.188 1.353 3.426 2.706 6.814 4.06 10.24.15.414.338.828.488 1.242.075.189.075.189-.113.189h-4.81c-2.294.037-4.511.037-6.804 0 0 .037.037.037 0 0zm17.628.037c3.346 0 6.729 0 10.074.038h.15c-.075.15-.15.339-.225.49a937.447 937.447 0 0 1-2.932 6.06c-.827 1.695-1.616 3.389-2.443 5.045-.075.113-.113.151-.263.151h-5.45c-.151 0-.189-.038-.226-.15-.827-2.109-1.617-4.18-2.443-6.288a287.124 287.124 0 0 1-1.992-5.12c0-.037-.038-.075-.038-.113-.038-.075 0-.113.075-.113h.038c1.841-.037 3.72 0 5.675 0-.037 0-.037 0 0 0z" fill="#E81129"/></g><g clip-path="url(#b)"><path d="M84.876 43l-.64-1.929H77.84L76.559 43H74l7.038-18 7.038 18h-3.2zm-1.919-4.5l-1.92-6.429L78.48 38.5h4.478zM105.99 25c3.839 0 6.398 2.571 6.398 7.071v4.5c0 3.858-2.559 7.072-6.398 7.072h-5.758V25h5.758zm-3.199 15.429h3.199c1.28 0 1.92-.643 2.56-1.286.639-.643.639-1.286.639-2.572v-4.5c0-1.285-.639-2.571-1.279-3.214 0-.643-1.28-1.286-1.92-1.286h-3.199V40.43zM138.62 43l-1.28-9.643L132.861 43l-4.478-9.643-1.92 9.643h-2.559l3.199-18 5.758 12.214L137.98 25l3.199 18h-2.559zm15.995 0V25h2.559v18h-2.559zm24.951-16.714c1.28.643 1.92 2.571 1.92 3.857h-2.56c0-.643 0-1.286-.639-1.929-.64-.643-1.28-.643-2.56-.643-1.279 0-1.919 0-2.559.643-.64.643-.64 1.286-.64 1.929s0 1.286.64 1.928c.64.643 1.28.643 2.559.643 1.92 0 3.199.643 3.839 1.286 1.28.643 1.92 2.571 1.92 3.857s-.64 2.572-1.92 3.857c-1.279.643-2.559 1.286-3.839 1.286-1.279 0-3.199-.643-3.838-1.286-1.28-1.285-1.92-2.571-1.92-3.857h2.559c0 .643 0 1.286.64 1.929s1.28.643 2.559.643c1.28 0 1.92 0 2.56-.643.639-.643.639-1.286.639-1.929s0-1.286-.639-1.928c-.64-.643-1.28-.643-2.56-.643-1.279 0-3.199-.643-3.838-1.286-1.28-1.286-1.92-2.571-1.92-3.857s.64-2.572 1.92-3.857c.639-.643 1.919-1.286 3.838-1.286 1.28 0 3.199.643 3.839 1.286zm23.673 0c1.279.643 1.919 2.571 1.919 3.857h-2.559c0-.643 0-1.286-.64-1.929s-1.28-.643-2.559-.643c-1.28 0-1.92 0-2.559.643-.64.643-.64 1.286-.64 1.929s0 1.286.64 1.928c.639.643 1.279.643 2.559.643 1.919 0 3.199.643 3.839 1.286 1.279.643 1.919 2.571 1.919 3.857s-.64 2.572-1.919 3.857c-1.28.643-2.56 1.286-3.839 1.286-1.28 0-3.199-.643-3.839-1.286-1.28-.643-1.919-2.571-1.919-3.857h2.559c0 .643 0 1.286.64 1.929.639.643 1.279.643 2.559.643 1.279 0 1.919 0 2.559-.643.64-.643.64-1.286.64-1.929s0-1.286-.64-1.928c-.64-.643-1.28-.643-2.559-.643-1.28 0-3.199-.643-3.839-1.286-1.28-.643-1.919-2.571-1.919-3.857s.639-2.572 1.919-3.857c1.28-.643 2.559-1.286 3.839-1.286 1.919 0 3.199.643 3.839 1.286zM217.954 43V25h2.559v18h-2.559zm28.151-10.929v4.5c0 3.858-2.56 7.072-6.398 7.072-3.839 0-6.398-2.572-6.398-7.072v-4.5c.639-4.5 3.199-7.071 7.037-7.071 3.839 0 5.759 2.571 5.759 7.071zm-8.958-3.214c-.639.643-1.279 1.929-1.279 3.214v4.5c0 1.286.64 2.572 1.279 3.215.64.643 1.28 1.285 2.56 1.285 1.279 0 1.919-.642 2.559-1.285.64-.643 1.279-1.929 1.279-3.215v-4.5c0-1.285-.639-2.571-1.279-3.214-.64-.643-1.28-1.286-2.559-1.286-1.28 0-1.92.643-2.56 1.286zM267.858 25h2.559v18l-8.957-10.929V43h-1.919V25l8.957 10.929V25h-.64z" fill="#0B096F"/><path d="M300.487 25h2.56l-5.119 18-4.478-11.571L288.971 43l-5.758-18h2.559l3.199 10.286L293.45 25l4.478 10.286L300.487 25zm15.356 18V25h2.559v18h-2.559zm26.231-2.571V43h-10.876l7.677-15.429h-7.038V25h10.877l-7.678 15.429h7.038z" fill="#E81129"/></g><defs><clipPath id="a"><path fill="#fff" transform="translate(3 3)" d="M0 0h71.943v48H0z"/></clipPath><clipPath id="b"><path fill="#fff" transform="translate(74 25)" d="M0 0h268.714v18H0z"/></clipPath></defs></svg>