<svg width="345" height="54" viewBox="0 0 345 54" fill="none" xmlns="http://www.w3.org/2000/svg">
<g clip-path="url(#clip0)">
<path d="M35.8894 39.2541C36.0773 39.8565 36.3404 40.4212 36.566 41.0236C37.844 44.2988 39.1219 47.5741 40.3999 50.8494C40.4751 51 40.4751 51.0377 40.2872 51.0377C37.4681 51.0377 34.6866 51.0377 31.8675 51.0377C31.7172 51.0377 31.6796 51 31.642 50.8494C30.9654 49.08 30.2512 47.3483 29.5747 45.5788C29.4995 45.3906 29.4243 45.3153 29.2364 45.3153C24.2372 45.3153 19.2756 45.3153 14.2764 45.3153C14.0885 45.3153 14.0133 45.353 13.9382 45.5412C13.2616 47.273 12.585 49.0424 11.946 50.7741C11.8708 50.9624 11.7957 51 11.6077 51C8.82622 51 6.08232 51 3.30082 51C3.26324 51 3.26324 51 3.22565 51C3.03771 51 3.03771 51 3.11288 50.8118C3.48876 49.8706 3.82705 48.9294 4.20293 47.9883C5.89438 43.6965 7.54824 39.3671 9.23969 35.0753C10.8184 31.0847 12.3595 27.0941 13.9382 23.0659C15.5168 19 17.0955 14.9718 18.6742 10.9059C19.5011 8.79769 20.3281 6.65181 21.155 4.54358C21.3429 4.05417 21.5309 3.56475 21.7188 3.07534C21.7564 3.0377 21.7564 3.00005 21.794 2.9624C21.794 3.18828 21.8316 3.37652 21.9068 3.52711C22.1699 4.12946 22.3954 4.76946 22.6209 5.37181C22.884 6.08711 23.1847 6.8024 23.4479 7.48005C23.7486 8.23299 24.0493 9.02357 24.35 9.77652C24.6131 10.4918 24.9138 11.2071 25.1769 11.9224C25.44 12.6377 25.7407 13.353 26.0038 14.0683C26.1542 14.4071 26.2669 14.7459 26.4173 15.0847C26.5676 15.6118 26.7932 16.1012 26.9811 16.5906C28.3343 20.0918 29.725 23.6306 31.1158 27.1318C31.1533 27.1694 31.1533 27.2447 31.1909 27.2824C31.3413 27.7718 31.5668 28.2236 31.7172 28.713C31.9803 29.4283 32.281 30.1436 32.5441 30.8589C32.8448 31.6118 33.1455 32.4024 33.4462 33.1553C33.7093 33.8706 34.01 34.5859 34.2731 35.3012C34.5738 36.0541 34.8745 36.8447 35.1752 37.5977C35.3632 38.1247 35.5887 38.6518 35.8142 39.1788C35.8518 39.2165 35.8518 39.2165 35.8894 39.2541ZM28.7477 27.0941C28.6725 27.0941 28.5598 27.0941 28.4846 27.0941C26.9059 27.0941 25.3648 27.0941 23.7861 27.0941C23.6358 27.0941 23.5606 27.0565 23.523 26.9059C22.9592 25.4753 22.433 24.0824 21.8692 22.6518C21.8316 22.5389 21.7564 22.4259 21.7188 22.2753C21.6436 22.313 21.6436 22.3883 21.6061 22.4259C21.0422 23.8942 20.4408 25.4 19.877 26.8683C19.8394 27.0189 19.7643 27.0565 19.5763 27.0565C17.9976 27.0565 16.4189 27.0565 14.8778 27.0565C14.8027 27.0565 14.7275 27.0189 14.6523 27.0941C14.7275 27.2071 14.8027 27.2824 14.9154 27.3577C16.0431 28.3741 17.1707 29.4283 18.2983 30.4447C18.3735 30.52 18.4111 30.5953 18.3735 30.7459C17.7721 32.2518 17.2083 33.72 16.6069 35.2259C16.5693 35.2636 16.5317 35.3388 16.5693 35.4141C16.6069 35.3765 16.6821 35.3765 16.7196 35.3389C18.3359 34.5483 19.9146 33.7577 21.5309 32.9671C21.6436 32.8918 21.7564 32.8918 21.8692 32.9671C23.4479 33.7577 25.0265 34.5483 26.6052 35.3389C26.6804 35.3765 26.718 35.4141 26.7932 35.4141C26.7932 35.3388 26.7556 35.2636 26.718 35.1883C26.1542 33.72 25.5904 32.2518 24.9889 30.8212C24.9138 30.6706 24.9514 30.5577 25.0641 30.4447C26.079 29.5036 27.1315 28.5624 28.1463 27.6212C28.3718 27.4706 28.5974 27.32 28.7477 27.0941Z" fill="#0B096F"/>
<path d="M42.9558 27.3201C42.9182 27.0565 42.8054 26.8306 42.6927 26.6048C41.2267 22.8777 39.7608 19.1506 38.3325 15.4236C38.2573 15.2354 38.2573 15.2354 38.4453 15.2354C50.5485 15.2354 62.6518 15.2354 74.7175 15.2354C74.7926 15.2354 74.8302 15.2354 74.943 15.2354C74.7926 15.5365 74.6423 15.8377 74.5295 16.1389C73.3267 18.7365 72.0863 21.3342 70.8835 23.9695C70.3573 25.0612 69.8686 26.153 69.38 27.2448C69.3048 27.3953 69.2296 27.3953 69.0793 27.3953C62.2383 27.3953 55.3973 27.3953 48.5564 27.3953C46.7897 27.3953 45.0231 27.3953 43.2565 27.3953C43.1437 27.3577 43.031 27.3577 42.9558 27.3201C42.9558 27.3577 42.9558 27.3577 42.9558 27.3201Z" fill="#E81129"/>
<path d="M26.4548 15.1224C26.3045 14.7835 26.1917 14.4447 26.0413 14.1059C25.7406 13.3906 25.4775 12.6753 25.2144 11.96C24.9513 11.2447 24.6506 10.5294 24.3875 9.81412C24.0868 9.06118 23.7861 8.27059 23.4854 7.51765C23.2223 6.80235 22.9216 6.08706 22.6584 5.40941C22.4329 4.76941 22.1698 4.16706 21.9443 3.56471C21.8315 3.37647 21.7939 3.18824 21.7188 3C21.7939 3 21.8691 3 21.9443 3C25.8534 3 29.7625 3 33.6341 3C33.822 3 33.8972 3.03765 33.9724 3.22588C34.9872 5.89882 36.0021 8.57176 37.017 11.2447C37.468 12.4871 37.9567 13.6918 38.4077 14.9341C38.4829 15.1224 38.4829 15.1224 38.2574 15.1224C34.3858 15.1224 30.5519 15.1224 26.6803 15.1224C26.6427 15.1224 26.53 15.1224 26.4548 15.1224Z" fill="#E81129"/>
<path d="M35.8517 39.1787C35.6262 38.6516 35.4382 38.1246 35.2127 37.5975C34.912 36.8446 34.6113 36.054 34.3106 35.3011C34.0475 34.5858 33.7468 33.8705 33.4837 33.1552C33.183 32.4022 32.8823 31.6116 32.5816 30.8587C32.3184 30.1434 32.0177 29.4281 31.7546 28.7128C31.5667 28.2234 31.3787 27.7716 31.2284 27.2822C32.356 27.2822 33.4461 27.2822 34.5737 27.2822C37.3552 27.2822 40.1367 27.2822 42.9558 27.2822C42.9558 27.3199 42.9558 27.3199 42.9934 27.3199C42.9558 27.3952 42.9934 27.4328 43.031 27.5081C44.3841 30.934 45.7373 34.3222 47.0904 37.7481C47.2408 38.1622 47.4287 38.5763 47.5791 38.9905C47.6542 39.1787 47.6542 39.1787 47.4663 39.1787C45.85 39.1787 44.2713 39.1787 42.6551 39.1787C40.3622 39.2163 38.1445 39.2163 35.8517 39.1787C35.8517 39.2163 35.8893 39.2163 35.8517 39.1787Z" fill="#E81129"/>
<path d="M53.4804 39.2164C56.8257 39.2164 60.2086 39.2164 63.5539 39.2541C63.5915 39.2541 63.6291 39.2541 63.7043 39.2541C63.6291 39.4047 63.5539 39.5929 63.4788 39.7435C62.5015 41.7764 61.5242 43.8094 60.5469 45.8047C59.72 47.4988 58.9306 49.1929 58.1037 50.8494C58.0285 50.9623 57.9909 51 57.8406 51C56.0364 51 54.1946 51 52.3903 51C52.24 51 52.2024 50.9623 52.1648 50.8494C51.3379 48.7411 50.5485 46.6706 49.7216 44.5623C49.045 42.8682 48.3685 41.1364 47.7295 39.4423C47.7295 39.4047 47.6919 39.367 47.6919 39.3294C47.6543 39.2541 47.6919 39.2164 47.767 39.2164H47.8046C49.6464 39.1788 51.5258 39.2164 53.4804 39.2164C53.4428 39.2164 53.4428 39.2164 53.4804 39.2164Z" fill="#E81129"/>
</g>
<g clip-path="url(#clip1)">
<path d="M84.8765 43L84.2367 41.0714H77.8388L76.5592 43H74L81.0378 25L88.0755 43H84.8765ZM82.9571 38.5L81.0378 32.0714L78.4786 38.5H82.9571Z" fill="#0B096F"/>
<path d="M105.99 25C109.829 25 112.388 27.5714 112.388 32.0714V36.5714C112.388 40.4286 109.829 43.6429 105.99 43.6429H100.232V25H105.99ZM102.791 40.4286H105.99C107.27 40.4286 107.91 39.7857 108.55 39.1429C109.189 38.5 109.189 37.8571 109.189 36.5714V32.0714C109.189 30.7857 108.55 29.5 107.91 28.8571C107.91 28.2143 106.63 27.5714 105.99 27.5714H102.791V40.4286Z" fill="#0B096F"/>
<path d="M138.62 43L137.34 33.3571L132.861 43L128.383 33.3571L126.463 43H123.904L127.103 25L132.861 37.2143L137.98 25L141.179 43H138.62Z" fill="#0B096F"/>
<path d="M154.615 43V25H157.174V43H154.615Z" fill="#0B096F"/>
<path d="M179.566 26.2857C180.846 26.9286 181.486 28.8571 181.486 30.1429H178.926C178.926 29.5 178.926 28.8571 178.287 28.2143C177.647 27.5714 177.007 27.5714 175.727 27.5714C174.448 27.5714 173.808 27.5714 173.168 28.2143C172.528 28.8571 172.528 29.5 172.528 30.1429C172.528 30.7857 172.528 31.4286 173.168 32.0714C173.808 32.7143 174.448 32.7143 175.727 32.7143C177.647 32.7143 178.926 33.3571 179.566 34C180.846 34.6429 181.486 36.5714 181.486 37.8571C181.486 39.1429 180.846 40.4286 179.566 41.7143C178.287 42.3571 177.007 43 175.727 43C174.448 43 172.528 42.3571 171.889 41.7143C170.609 40.4286 169.969 39.1429 169.969 37.8571H172.528C172.528 38.5 172.528 39.1429 173.168 39.7857C173.808 40.4286 174.448 40.4286 175.727 40.4286C177.007 40.4286 177.647 40.4286 178.287 39.7857C178.926 39.1429 178.926 38.5 178.926 37.8571C178.926 37.2143 178.926 36.5714 178.287 35.9286C177.647 35.2857 177.007 35.2857 175.727 35.2857C174.448 35.2857 172.528 34.6429 171.889 34C170.609 32.7143 169.969 31.4286 169.969 30.1429C169.969 28.8571 170.609 27.5714 171.889 26.2857C172.528 25.6429 173.808 25 175.727 25C177.007 25 178.926 25.6429 179.566 26.2857Z" fill="#0B096F"/>
<path d="M203.239 26.2857C204.518 26.9286 205.158 28.8571 205.158 30.1429H202.599C202.599 29.5 202.599 28.8571 201.959 28.2143C201.319 27.5714 200.679 27.5714 199.4 27.5714C198.12 27.5714 197.48 27.5714 196.841 28.2143C196.201 28.8571 196.201 29.5 196.201 30.1429C196.201 30.7857 196.201 31.4286 196.841 32.0714C197.48 32.7143 198.12 32.7143 199.4 32.7143C201.319 32.7143 202.599 33.3571 203.239 34C204.518 34.6429 205.158 36.5714 205.158 37.8571C205.158 39.1429 204.518 40.4286 203.239 41.7143C201.959 42.3571 200.679 43 199.4 43C198.12 43 196.201 42.3571 195.561 41.7143C194.281 41.0714 193.642 39.1429 193.642 37.8571H196.201C196.201 38.5 196.201 39.1429 196.841 39.7857C197.48 40.4286 198.12 40.4286 199.4 40.4286C200.679 40.4286 201.319 40.4286 201.959 39.7857C202.599 39.1429 202.599 38.5 202.599 37.8571C202.599 37.2143 202.599 36.5714 201.959 35.9286C201.319 35.2857 200.679 35.2857 199.4 35.2857C198.12 35.2857 196.201 34.6429 195.561 34C194.281 33.3571 193.642 31.4286 193.642 30.1429C193.642 28.8571 194.281 27.5714 195.561 26.2857C196.841 25.6429 198.12 25 199.4 25C201.319 25 202.599 25.6429 203.239 26.2857Z" fill="#0B096F"/>
<path d="M217.954 43V25H220.513V43H217.954Z" fill="#0B096F"/>
<path d="M246.105 32.0714V36.5714C246.105 40.4286 243.545 43.6429 239.707 43.6429C235.868 43.6429 233.309 41.0714 233.309 36.5714V32.0714C233.948 27.5714 236.508 25 240.346 25C244.185 25 246.105 27.5714 246.105 32.0714ZM237.147 28.8571C236.508 29.5 235.868 30.7857 235.868 32.0714V36.5714C235.868 37.8571 236.508 39.1429 237.147 39.7857C237.787 40.4286 238.427 41.0714 239.707 41.0714C240.986 41.0714 241.626 40.4286 242.266 39.7857C242.906 39.1429 243.545 37.8571 243.545 36.5714V32.0714C243.545 30.7857 242.906 29.5 242.266 28.8571C241.626 28.2143 240.986 27.5714 239.707 27.5714C238.427 27.5714 237.787 28.2143 237.147 28.8571Z" fill="#0B096F"/>
<path d="M267.858 25H270.417V43L261.46 32.0714V43H259.541V25L268.498 35.9286V25H267.858Z" fill="#0B096F"/>
<path d="M300.487 25H303.047L297.928 43L293.45 31.4286L288.971 43L283.213 25H285.772L288.971 35.2857L293.45 25L297.928 35.2857L300.487 25Z" fill="#E81129"/>
<path d="M315.843 43V25H318.402V43H315.843Z" fill="#E81129"/>
<path d="M342.074 40.4286V43H331.198L338.875 27.5714H331.837V25H342.714L335.036 40.4286H342.074Z" fill="#E81129"/>
</g>
<defs>
<clipPath id="clip0">
<rect width="71.943" height="48" fill="white" transform="translate(3 3)"/>
</clipPath>
<clipPath id="clip1">
<rect width="268.714" height="18" fill="white" transform="translate(74 25)"/>
</clipPath>
</defs>
</svg>
