<?xml version="1.0" encoding="UTF-8"?>
<svg width="72px" height="46px" viewBox="0 0 72 46" version="1.1" xmlns="http://www.w3.org/2000/svg" xmlns:xlink="http://www.w3.org/1999/xlink">
    <!-- Generator: Sketch 48.2 (47327) - http://www.bohemiancoding.com/sketch -->
    <title>add-money</title>
    <desc>Created with Sketch.</desc>
    <defs></defs>
    <g id="home" stroke="none" stroke-width="1" fill="none" fill-rule="evenodd" transform="translate(-394.000000, -1021.000000)">
        <g id="type-of-account" transform="translate(156.000000, 880.000000)">
            <g id="Group-10" transform="translate(144.000000, 80.000000)">
                <g id="block-1">
                    <g id="add-money" transform="translate(94.000000, 35.000000)">
                        <rect id="Rectangle-14" x="0" y="0" width="72" height="72"></rect>
                        <g id="icon" transform="translate(0.000000, 26.000000)" fill="#00D3C0" stroke="#FFFFFF" stroke-width="0.200000018">
                            <path d="M69.0458233,39.3471249 C69.0357767,39.3603027 69.0290791,39.3767748 69.0190326,39.3899525 L69.0458233,39.4080719 L69.0458233,39.3471249 Z" id="Fill-1"></path>
                            <path d="M34.7677953,38.627292 C23.5224,42.7486236 12.8965395,46.6442867 2.07142326,39.6963345 L2.07142326,8.11757851 C13.1811907,14.821743 24.3579349,10.7284141 35.1780279,6.7635679 C46.4250977,2.64388355 57.0526326,-1.25177958 67.8744,5.69452546 L67.8744,26.7689923 C68.3080744,27.218682 68.7015628,27.7062576 69.046493,28.2267775 L69.046493,5.07517268 L68.7852837,4.90386233 C57.3757953,-2.60249576 45.8842605,1.60943263 34.7677953,5.68299496 C23.430307,9.83562361 12.7240744,13.7609366 1.81021395,6.58237427 L0.899330233,5.98278806 L0.899330233,40.3140401 L1.16053953,40.4853504 C5.74844651,43.5046952 10.3497488,44.6280958 14.934307,44.6280958 C21.7525395,44.6280958 28.5322605,42.1424485 35.1780279,39.707865 C40.2397953,37.8531011 45.1726326,36.051048 50.0569116,35.2554432 C50.0033302,34.8897615 49.9681674,34.517491 49.9547721,34.1386316 C44.8461209,34.9490613 39.7676093,36.7939419 34.7677953,38.627292" id="Fill-3"></path>
                            <path d="M6.63136744,13.6922477 C6.33834419,13.5818844 6.04532093,13.4649321 5.75732093,13.3397438 C5.45927442,13.2129082 5.11266977,13.3463326 4.98541395,13.6362424 C4.85313488,13.9294467 4.99043721,14.2687729 5.28513488,14.3956085 C5.59490233,14.5273857 5.90299535,14.652574 6.21276279,14.767879 C6.28141395,14.7942345 6.35173953,14.8074122 6.42206512,14.8074122 C6.65815814,14.8074122 6.8791814,14.6657517 6.9696,14.4367889 C7.08513488,14.138643 6.93443721,13.8059056 6.63136744,13.6922477" id="Fill-6"></path>
                            <path d="M11.5777674,15.4826056 C11.5978605,15.1894013 11.3969302,14.9225525 11.0938605,14.8731361 C10.3353488,14.7528894 9.5852093,14.5947568 8.86353488,14.4053271 C8.5504186,14.3246135 8.23060465,14.5041599 8.1452093,14.8121891 C8.06148837,15.1202183 8.24734884,15.4364836 8.5587907,15.5188443 C9.31730233,15.7198045 10.1076279,15.8861732 10.908,16.0130088 C10.9381395,16.0179504 10.9699535,16.0195976 11.000093,16.0195976 C11.2713488,16.0195976 11.504093,15.8268735 11.5643721,15.5616719 C11.5643721,15.5517886 11.5593488,15.5419053 11.5610233,15.532022 C11.5626977,15.5139027 11.5727442,15.5007249 11.5777674,15.4826056" id="Fill-8"></path>
                            <path d="M13.0902698,15.1039109 C12.7955721,15.0824971 12.5025488,15.0561416 12.2095256,15.0231973 C11.8947349,14.9919003 11.6368744,15.1945077 11.5782698,15.4827703 C11.5732465,15.5008897 11.5632,15.5140674 11.5615256,15.5321867 C11.5598512,15.54207 11.5648744,15.5503061 11.5648744,15.5618366 C11.5447814,15.8649241 11.7674791,16.1350674 12.0789209,16.1680117 C12.3853395,16.2026032 12.695107,16.2306058 13.0015256,16.2536668 C13.0165953,16.2553141 13.0316651,16.2553141 13.0467349,16.2553141 C13.3498047,16.2553141 13.6076651,16.0263512 13.6294326,15.7216164 C13.6545488,15.4053512 13.4134326,15.1286191 13.0902698,15.1039109" id="Fill-10"></path>
                            <path d="M32.4802047,29.2096706 C32.4718326,29.3480366 32.4299721,30.5801533 33.2722047,31.1896228 C33.5618791,31.3988191 33.9034605,31.5042408 34.2936,31.5042408 C34.613414,31.5042408 34.9667163,31.4334106 35.3518326,31.2917501 C37.6089488,30.4566122 40.0000186,27.6843496 39.961507,24.8873788 C39.9481116,23.823278 39.6500651,23.0869729 39.077414,22.6998775 C38.7475535,22.4775034 38.1765767,22.2716016 37.3192744,22.581278 C36.3564837,22.9304875 35.3702512,23.984705 35.4389023,25.2629438 C35.4790884,25.7834637 35.8692279,26.4094053 36.6310884,26.552713 C36.9391814,26.6120127 37.2556465,26.4061109 37.3159256,26.0947873 C37.3762047,25.7818164 37.1685767,25.4803761 36.8487628,25.4210764 C36.637786,25.3815432 36.6093209,25.1888191 36.6076465,25.1888191 C36.5708093,24.5085194 37.1602047,23.8677528 37.7228093,23.6634981 C37.933786,23.5877263 38.2251349,23.5218377 38.4143442,23.6486732 C38.6437395,23.8051586 38.7810419,24.2630844 38.7910884,24.9038509 C38.8212279,27.1819491 36.7851349,29.5292302 34.9416,30.2111772 C34.6234605,30.3281294 34.1998326,30.431904 33.9670884,30.2605936 C33.697507,30.0662223 33.6372279,29.5111109 33.6506233,29.2409676 L33.6506233,21.8169703 C33.2604837,21.9586308 32.8703442,22.1002912 32.4802047,22.2419517 L32.4802047,29.2096706 Z" id="Fill-12"></path>
                            <path d="M33.6509581,17.2528674 C33.6509581,16.3320743 33.3629581,15.8988568 33.1921674,15.7226048 C32.9544,15.4162228 32.5977488,15.218557 32.1841674,15.1625517 C31.5847256,15.080191 30.886493,15.3042122 30.3037953,15.7769629 C29.4649116,16.4572626 29.1752372,17.5394828 29.6440744,18.2395491 C29.8232372,18.5063979 30.1932837,18.5788753 30.4561674,18.4026233 C30.7274233,18.2263714 30.8010977,17.8705729 30.6219349,17.6037241 C30.5214698,17.4521804 30.6386791,16.9991963 31.0489116,16.6664589 C31.4340279,16.3551353 31.7990512,16.2810106 32.0250977,16.3040716 C32.194214,16.3271326 32.2494698,16.4061989 32.3398884,16.5132679 C32.3415628,16.5149151 32.4805395,16.6961088 32.4805395,17.2528674 L32.4805395,21.0134589 C32.8706791,20.8717984 33.2608186,20.7301379 33.6509581,20.5884775 L33.6509581,17.2528674 Z" id="Fill-14"></path>
                            <path d="M39.7451721,18.3958698 C38.0808,18.9691005 36.4164279,19.57857 34.7537302,20.1880395 C34.3870326,20.3231111 34.0186605,20.4548883 33.6502884,20.5883127 C33.2601488,20.7299732 32.8716837,20.8716337 32.4798698,21.0132942 C32.0679628,21.1615435 31.6560558,21.3147345 31.2441488,21.4613366 C30.9394047,21.5684056 30.7820093,21.8994958 30.8925209,22.1992889 C30.9795907,22.4331934 31.2022884,22.5797955 31.4434047,22.5797955 C31.508707,22.5797955 31.5773581,22.568265 31.6426605,22.545204 C31.920614,22.4463711 32.2002419,22.3425966 32.4798698,22.2404692 C32.8716837,22.100456 33.2601488,21.9587955 33.6502884,21.817135 C34.1542884,21.6326469 34.6582884,21.4531005 35.1622884,21.2686125 C36.8182884,20.6607902 38.4742884,20.0546151 40.1302884,19.4846788 C40.436707,19.379257 40.5991256,19.0498141 40.4902884,18.750021 C40.3864744,18.4502279 40.0515907,18.2920952 39.7451721,18.3958698" id="Fill-16"></path>
                            <path d="M34.7547349,34.3066475 C31.3556651,35.629361 28.1592,35.4712284 25.7480372,33.858605 C23.5645953,32.3991727 22.3138047,29.8426952 22.3138047,26.843117 C22.3121302,20.7187721 27.8460837,13.9454247 35.1867349,11.0891541 C36.7121302,10.4945095 38.1956651,10.1996581 39.587107,10.1996581 C41.2983628,10.1996581 42.8689674,10.6460533 44.2001302,11.5355493 C46.3802233,12.9949817 47.6326884,15.5514592 47.6326884,18.5510374 C47.6326884,24.6770294 42.0970605,31.4503769 34.7547349,34.3066475 M44.8581767,10.5818119 C42.1556651,8.77646446 38.4736186,8.56891538 34.7547349,10.01517 C26.8665488,13.0872257 21.1417116,20.165308 21.143386,26.843117 C21.1417116,30.2297907 22.5800372,33.1338305 25.0899907,34.8123424 C26.6003163,35.8220851 28.4187349,36.3327218 30.3761302,36.3327218 C31.9199442,36.3327218 33.5491535,36.0164565 35.1867349,35.3789844 C43.0782698,32.3085759 48.8047814,25.2321408 48.8047814,18.5510374 C48.8047814,15.1643637 47.3664558,12.2603239 44.8581767,10.5818119" id="Fill-18"></path>
                            <path d="M61.2133953,26.7164462 C56.1683721,26.7164462 52.0643721,30.7537698 52.0643721,35.7151809 C52.0643721,40.6782393 56.1683721,44.7155629 61.2133953,44.7155629 C66.2584186,44.7155629 70.3624186,40.6782393 70.3624186,35.7151809 C70.3624186,30.7537698 66.2584186,26.7164462 61.2133953,26.7164462 M61.2133953,45.8686133 C55.5237209,45.8686133 50.8939535,41.3140642 50.8939535,35.7151809 C50.8939535,30.1179448 55.5237209,25.5633958 61.2133953,25.5633958 C66.9030698,25.5633958 71.5328372,30.1179448 71.5328372,35.7151809 C71.5328372,41.3140642 66.9030698,45.8686133 61.2133953,45.8686133" id="Fill-20"></path>
                            <path d="M65.6512744,35.1462329 L61.7917395,35.1462329 L61.7917395,31.3510499 C61.7917395,31.0792594 61.5673674,30.8568854 61.2910884,30.8568854 L61.1370419,30.8568854 C60.8607628,30.8568854 60.6347163,31.0792594 60.6347163,31.3510499 L60.6347163,35.1462329 L56.7751814,35.1462329 C56.4989023,35.1462329 56.2728558,35.3686069 56.2728558,35.6403973 L56.2728558,35.7919411 C56.2728558,36.0637316 56.4989023,36.2844584 56.7751814,36.2844584 L60.6347163,36.2844584 L60.6347163,40.0812886 C60.6347163,40.353079 60.8607628,40.5754531 61.1370419,40.5754531 L61.2910884,40.5754531 C61.5673674,40.5754531 61.7917395,40.353079 61.7917395,40.0812886 L61.7917395,36.2844584 L65.6512744,36.2844584 C65.9275535,36.2844584 66.1536,36.0637316 66.1536,35.7919411 L66.1536,35.6403973 C66.1536,35.3686069 65.9275535,35.1462329 65.6512744,35.1462329" id="Fill-22"></path>
                        </g>
                    </g>
                </g>
            </g>
        </g>
    </g>
</svg>