<?xml version="1.0" encoding="UTF-8"?>
<svg width="74px" height="47px" viewBox="0 0 74 47" version="1.1" xmlns="http://www.w3.org/2000/svg" xmlns:xlink="http://www.w3.org/1999/xlink">
    <!-- Generator: Sketch 48.2 (47327) - http://www.bohemiancoding.com/sketch -->
    <title>id-card</title>
    <desc>Created with Sketch.</desc>
    <defs></defs>
    <g id="home" stroke="none" stroke-width="1" fill="none" fill-rule="evenodd" transform="translate(-683.000000, -2376.000000)">
        <g id="a/c-type" transform="translate(300.000000, 2006.000000)">
            <g id="Group-8" transform="translate(0.000000, 314.000000)">
                <g id="Group-7" transform="translate(290.000000, 30.000000)">
                    <g id="id-card" transform="translate(94.000000, 0.000000)">
                        <rect id="Rectangle-14" x="0" y="0" width="72" height="72"></rect>
                        <g id="Page-1" transform="translate(0.000000, 27.000000)" fill="#00D3C0" stroke="#FFFFFF" stroke-width="0.300000012">
                            <path d="M20.25,13.875 C17.9984792,13.875 16.1666667,15.6413906 16.1666667,17.8125 L16.1666667,18.9375 C16.1666667,21.1086094 17.9984792,22.875 20.25,22.875 C22.5015208,22.875 24.3333333,21.1086094 24.3333333,18.9375 L24.3333333,17.8125 C24.3333333,15.6413906 22.5015208,13.875 20.25,13.875 M20.25,24 C17.3550625,24 15,21.7290469 15,18.9375 L15,17.8125 C15,15.0209531 17.3550625,12.75 20.25,12.75 C23.1449375,12.75 25.5,15.0209531 25.5,17.8125 L25.5,18.9375 C25.5,21.7290469 23.1449375,24 20.25,24" id="Fill-1"></path>
                            <path d="M15.2646835,26.6841326 C14.2548313,26.6841326 12.4000096,27.7932208 12.4000096,29.6055358 L12.4000096,32.5658674 L27.3501342,32.5658674 L27.3499904,29.6055358 C27.3499904,28.5756365 26.2625126,26.6841326 24.4854603,26.6841326 L23.8292361,26.6841326 L23.6567346,26.9202191 C22.6703139,28.2701303 21.3272465,29.0134695 19.8750719,29.0134695 C18.4231848,29.0134695 17.0799736,28.2701303 16.0934091,26.9202191 L15.9207639,26.6841326 L15.2646835,26.6841326 Z M12.7841128,33.75 C11.938137,33.75 11.25,33.0414446 11.25,32.1703671 L11.25,29.6055358 C11.25,28.6807282 11.6871474,27.6496448 12.4195597,26.8475429 C13.2129226,25.9786856 14.2233498,25.500148 15.264396,25.500148 L16.2407541,25.500148 C16.4420058,25.500148 16.6251448,25.6053878 16.7305144,25.7818236 C17.5082084,27.0830373 18.6543367,27.8293369 19.8750719,27.8293369 C21.095807,27.8293369 22.2420791,27.0830373 23.0196293,25.7816755 C23.1251427,25.6052398 23.308138,25.5 23.5093897,25.5 L24.485604,25.5 C25.5736569,25.5 26.6080905,26.0022202 27.3985783,26.9141504 C28.0882966,27.7100355 28.5,28.7161042 28.5,29.6055358 L28.5,32.1753996 C28.5,33.0436649 27.8140193,33.75 26.9709185,33.75 L12.7841128,33.75 Z" id="Fill-3"></path>
                            <path d="M9.60326087,7.88888889 C8.65925951,7.88888889 7.89130435,8.65521875 7.89130435,9.59722222 L7.89130435,34.6527778 C7.89130435,35.5947813 8.65925951,36.3611111 9.60326087,36.3611111 L30.1467391,36.3611111 C31.0907405,36.3611111 31.8586957,35.5947813 31.8586957,34.6527778 L31.8586957,9.59722222 C31.8586957,8.65521875 31.0907405,7.88888889 30.1467391,7.88888889 L9.60326087,7.88888889 Z M9.60326087,37.5 C8.02997283,37.5 6.75,36.2227361 6.75,34.6527778 L6.75,9.59722222 C6.75,8.02726389 8.02997283,6.75 9.60326087,6.75 L30.1467391,6.75 C31.7200272,6.75 33,8.02726389 33,9.59722222 L33,34.6527778 C33,36.2227361 31.7200272,37.5 30.1467391,37.5 L9.60326087,37.5 Z" id="Fill-5"></path>
                            <path d="M37.3223684,10.125 C37.0067072,10.125 36.75,9.87271875 36.75,9.5625 C36.75,9.25228125 37.0067072,9 37.3223684,9 L57.9276316,9 C58.2432928,9 58.5,9.25228125 58.5,9.5625 C58.5,9.87271875 58.2432928,10.125 57.9276316,10.125 L37.3223684,10.125 Z" id="Fill-7"></path>
                            <path d="M37.32,15.375 C37.005645,15.375 36.75,15.1227187 36.75,14.8125 C36.75,14.5022812 37.005645,14.25 37.32,14.25 L64.68,14.25 C64.994355,14.25 65.25,14.5022812 65.25,14.8125 C65.25,15.1227187 64.994355,15.375 64.68,15.375 L37.32,15.375 Z" id="Fill-9"></path>
                            <path d="M41.8125,26.625 C41.5022813,26.625 41.25,26.3727188 41.25,26.0625 C41.25,25.7522813 41.5022813,25.5 41.8125,25.5 L51.9375,25.5 C52.2477188,25.5 52.5,25.7522813 52.5,26.0625 C52.5,26.3727188 52.2477188,26.625 51.9375,26.625 L41.8125,26.625 Z" id="Fill-11"></path>
                            <path d="M37.5,27 C37.301625,27 37.1083125,26.920125 36.969,26.781 C36.829875,26.641875 36.75,26.448375 36.75,26.25 C36.75,26.0518125 36.829875,25.8583125 36.9688125,25.719375 C37.1083125,25.579875 37.3018125,25.5 37.5,25.5 C37.6981875,25.5 37.8916875,25.579875 38.031,25.7191875 C38.170125,25.8583125 38.25,26.0518125 38.25,26.25 C38.25,26.448375 38.170125,26.641875 38.0311875,26.7808125 C37.8916875,26.920125 37.698375,27 37.5,27" id="Fill-13"></path>
                            <path d="M41.8235294,31.125 C41.5072279,31.125 41.25,30.8727188 41.25,30.5625 C41.25,30.2522813 41.5072279,30 41.8235294,30 L60.1764706,30 C60.4927721,30 60.75,30.2522813 60.75,30.5625 C60.75,30.8727188 60.4927721,31.125 60.1764706,31.125 L41.8235294,31.125 Z" id="Fill-15"></path>
                            <path d="M37.5,31.5 C37.301625,31.5 37.1083125,31.420125 36.969,31.281 C36.829875,31.141875 36.75,30.948375 36.75,30.75 C36.75,30.5518125 36.829875,30.3583125 36.9688125,30.219375 C37.1083125,30.079875 37.3018125,30 37.5,30 C37.6981875,30 37.8916875,30.079875 38.031,30.2191875 C38.170125,30.3583125 38.25,30.5518125 38.25,30.75 C38.25,30.948375 38.170125,31.141875 38.0311875,31.2808125 C37.8916875,31.420125 37.698375,31.5 37.5,31.5" id="Fill-17"></path>
                            <path d="M41.8125,35.625 C41.5022813,35.625 41.25,35.3727188 41.25,35.0625 C41.25,34.7522813 41.5022813,34.5 41.8125,34.5 L56.4375,34.5 C56.7477188,34.5 57,34.7522813 57,35.0625 C57,35.3727188 56.7477188,35.625 56.4375,35.625 L41.8125,35.625 Z" id="Fill-19"></path>
                            <path d="M37.5,36 C37.301625,36 37.1083125,35.920125 36.969,35.781 C36.829875,35.641875 36.75,35.448375 36.75,35.25 C36.75,35.0518125 36.829875,34.8583125 36.9688125,34.719375 C37.1083125,34.579875 37.3018125,34.5 37.5,34.5 C37.6981875,34.5 37.8916875,34.579875 38.031,34.7191875 C38.170125,34.8583125 38.25,35.0518125 38.25,35.25 C38.25,35.448375 38.170125,35.641875 38.0311875,35.7808125 C37.8916875,35.920125 37.698375,36 37.5,36" id="Fill-21"></path>
                            <path d="M70.8571429,39.8074593 C70.8571429,42.0343381 69.0627143,43.8461021 66.8571429,43.8461021 L5.14285714,43.8461021 C2.93728571,43.8461021 1.14285714,42.0343381 1.14285714,39.8074593 L1.14285714,5.19052137 C1.14285714,2.9636426 2.93728571,1.15187861 5.14285714,1.15187861 L28.5712857,1.15187861 L38.0488571,1.15187861 L39.6652857,1.15187861 L44.8571429,1.15187861 L66.8571429,1.15187861 C69.0627143,1.15187861 70.8571429,2.9636426 70.8571429,5.19052137 L70.8571429,39.8074593 Z M66.9317143,0 L5.06828571,0 C2.26685714,0.0405306648 0,2.35250941 0,5.19052137 L0,39.8074593 C0,42.6707128 2.307,45 5.14285714,45 L66.8571429,45 C69.693,45 72,42.6707128 72,39.8074593 L72,5.19052137 C72,2.35250941 69.7331429,0.0405306648 66.9317143,0 Z" id="Fill-23"></path>
                        </g>
                    </g>
                </g>
            </g>
        </g>
    </g>
</svg>