<?xml version="1.0" encoding="UTF-8"?>
<svg width="74px" height="74px" viewBox="0 0 74 74" version="1.1" xmlns="http://www.w3.org/2000/svg" xmlns:xlink="http://www.w3.org/1999/xlink">
    <!-- Generator: Sketch 48.2 (47327) - http://www.bohemiancoding.com/sketch -->
    <title>send-money</title>
    <desc>Created with Sketch.</desc>
    <defs></defs>
    <g id="home" stroke="none" stroke-width="1" fill="none" fill-rule="evenodd" transform="translate(-683.000000, -994.000000)">
        <g id="type-of-account" transform="translate(156.000000, 880.000000)">
            <g id="Group-10" transform="translate(144.000000, 80.000000)">
                <g id="block-2" transform="translate(290.000000, 0.000000)">
                    <g id="send-money" transform="translate(94.000000, 35.000000)">
                        <rect id="Rectangle-14" x="0" y="0" width="72" height="72"></rect>
                        <g id="send-money-icon" stroke="#00D3C0" stroke-linecap="round">
                            <path d="M72,64.3138648 C47.8851429,48.8879432 24.996,83.3516926 0.881142857,67.925771 C0.586285714,55.9455318 0.293142857,43.967024 0,31.9867848 C24.1131429,47.4127064 47.004,12.9472255 71.1188571,28.3748786 C71.412,40.3551178 71.7068571,52.3353571 72,64.3138648 Z" id="Stroke-1"></path>
                            <path d="M4.55696203,38.7 C4.89964557,38.8368 5.2441519,38.9646 5.58683544,39.0852" id="Stroke-3"></path>
                            <path d="M8.20253165,40.5 C9.1152023,40.707 10.0259556,40.8654 10.9367089,40.9824" id="Stroke-5" stroke-dasharray="0.854,1.709"></path>
                            <path d="M11.8481013,40.5 C12.188962,40.5288 12.5298228,40.5522 12.8688608,40.5684" id="Stroke-7"></path>
                            <path d="M60.1518987,54.9 C60.4909367,54.9144 60.8317975,54.936 61.1726582,54.963" id="Stroke-9"></path>
                            <path d="M63.7974684,55.8 C64.7075861,55.9548 65.6196158,56.1564 66.5316456,56.4066" id="Stroke-11" stroke-dasharray="0.855,1.711"></path>
                            <path d="M67.443038,56.7 C67.7857215,56.8188 68.1284051,56.9448 68.4710886,57.0798" id="Stroke-13"></path>
                            <path d="M38.2745153,51.3542803 C37.7806773,51.2727936 37.5337584,50.8585693 37.5016251,50.5512964 C37.4238287,49.5208288 38.2203961,48.5888242 39.0186548,48.2696678 C40.0942745,47.8435601 40.9398875,48.3138065 41.0092278,50.1183982 C41.1107014,52.7361595 38.9442408,55.5949859 36.7287348,56.4913399 C34.4168288,57.4233445 34.508155,54.9312085 34.5098462,54.9295108 C34.508155,54.9312085 34.2172641,43.0799814 34.193587,42.1089311 C34.1699098,41.1327879 33.8299734,40.8849324 33.8299734,40.8849324 C33.4054756,40.3060371 32.4364031,40.3909191 31.6601304,41.0665799 C31.0411417,41.6064296 30.8077525,42.4246922 31.1358503,42.9000315" id="Stroke-15"></path>
                            <path d="M32.8101266,47.7 C35.8486837,46.5168932 38.8854935,45.2499029 41.9240506,44.1" id="Stroke-17"></path>
                            <path d="M51.0341295,42.8168319 C51.2144571,50.0575165 45.0295669,57.6605821 37.2373334,60.9688259 C29.4520356,64.273602 22.9723791,59.9943851 22.7885836,52.5820464 C22.6099899,45.3430957 28.7931463,37.7382962 36.580178,34.4335201 C44.3706775,31.1252763 50.852068,35.4010254 51.0341295,42.8168319 Z" id="Stroke-19"></path>
                            <path d="M17.3164557,6.3 C36.8534077,7.41933565 61.5423035,19.3228084 62.8238645,35.9821681 C63.9580802,50.7106308 49.4257267,61.6701476 32.1263665,62.1" id="Stroke-21"></path>
                            <polyline id="Stroke-23" points="31.9728625 18.9 12.7594937 5.10397351 34.6329114 0"></polyline>
                        </g>
                    </g>
                </g>
            </g>
        </g>
    </g>
</svg>