<?xml version="1.0" encoding="UTF-8"?>
<svg width="74px" height="69px" viewBox="0 0 74 69" version="1.1" xmlns="http://www.w3.org/2000/svg" xmlns:xlink="http://www.w3.org/1999/xlink">
    <!-- Generator: Sketch 48.2 (47327) - http://www.bohemiancoding.com/sketch -->
    <title>source-of-fund</title>
    <desc>Created with Sketch.</desc>
    <defs></defs>
    <g id="home" stroke="none" stroke-width="1" fill="none" fill-rule="evenodd" transform="translate(-973.000000, -2354.000000)">
        <g id="a/c-type" transform="translate(300.000000, 2006.000000)">
            <g id="Group-8" transform="translate(0.000000, 314.000000)">
                <g id="Group-7" transform="translate(580.000000, 30.000000)">
                    <g id="source-of-fund" transform="translate(94.000000, 0.000000)">
                        <rect id="Rectangle-14" x="0" y="0" width="72" height="72"></rect>
                        <g id="Page-1" transform="translate(0.000000, 5.000000)" fill="#00D3C0" stroke="#FFFFFF">
                            <path d="M35.9987286,9.19553482 C33.7380143,9.19553482 31.8988714,11.0023176 31.8988714,13.2230816 C31.8988714,15.4438456 33.7380143,17.250488 35.9987286,17.250488 C38.2594429,17.250488 40.0987286,15.4438456 40.0987286,13.2230816 C40.0987286,11.0023176 38.2594429,9.19553482 35.9987286,9.19553482 M35.9987286,18.3871824 C33.1000143,18.3871824 30.7417286,16.0705712 30.7417286,13.2230816 C30.7417286,10.375592 33.1000143,8.05884044 35.9987286,8.05884044 C38.8974429,8.05884044 41.2558714,10.375592 41.2558714,13.2230816 C41.2558714,16.0705712 38.8974429,18.3871824 35.9987286,18.3871824" id="Fill-1" stroke-width="0.300000012"></path>
                            <path d="M35.999,1.27715333 C33.7907143,1.27715333 31.659,1.92268347 29.8342857,3.14399844 L1.60314286,22.0381045 C1.22314286,22.2922469 1.07128571,22.7182968 1.20685714,23.1498196 C1.342,23.5812022 1.71171429,23.8495182 2.17157143,23.8495182 L69.8262857,23.8496585 C70.2861429,23.8496585 70.6558571,23.5813425 70.791,23.149539 C70.9264286,22.7182968 70.7744286,22.2923872 70.3944286,22.0381045 L42.1637143,3.14399844 C40.3388571,1.92268347 38.2071429,1.27715333 35.999,1.27715333 Z M7.438,28.1700795 L17.1495714,28.1700795 L17.1495714,24.9860722 L7.438,24.9860722 L7.438,28.1700795 Z M23.2412857,28.1700795 L32.953,28.1700795 L32.953,24.9860722 L23.2412857,24.9860722 L23.2412857,28.1700795 Z M39.0444286,28.1700795 L48.756,28.1700795 L48.756,24.9860722 L39.0444286,24.9860722 L39.0444286,28.1700795 Z M54.8477143,28.1700795 L64.5594286,28.1700795 L64.5594286,24.9860722 L54.8477143,24.9860722 L54.8477143,28.1700795 Z M9.19428571,49.1384423 L15.3934286,49.1384423 L15.3934286,29.3067739 L9.19428571,29.3067739 L9.19428571,49.1384423 Z M24.9974286,49.1384423 L31.1968571,49.1384423 L31.1968571,29.3067739 L24.9974286,29.3067739 L24.9974286,49.1384423 Z M40.8008571,49.1384423 L47,49.1384423 L47,29.3067739 L40.8008571,29.3067739 L40.8008571,49.1384423 Z M56.6038571,49.1384423 L62.8032857,49.1384423 L62.8032857,29.3067739 L56.6038571,29.3067739 L56.6038571,49.1384423 Z M7.43814286,54.9651939 L17.1497143,54.9651939 L17.1497143,50.274856 L7.43814286,50.274856 L7.43814286,54.9651939 Z M23.2414286,54.9651939 L32.9531429,54.9651939 L32.9531429,50.274856 L23.2414286,50.274856 L23.2414286,54.9651939 Z M39.0447143,54.9651939 L48.7562857,54.9651939 L48.7562857,50.274856 L39.0447143,50.274856 L39.0447143,54.9651939 Z M54.8478571,54.9651939 L64.5595714,54.9651939 L64.5595714,50.274856 L54.8478571,50.274856 L54.8478571,54.9651939 Z M16.5505714,49.1384423 L17.7282857,49.1384423 C18.0472857,49.1384423 18.3068571,49.3932864 18.3068571,49.7066492 L18.3068571,54.9653342 L22.0844286,54.9653342 L22.0844286,49.7066492 C22.0844286,49.3932864 22.344,49.1384423 22.663,49.1384423 L23.8407143,49.1384423 L23.8407143,29.3066336 L22.663,29.3066336 C22.344,29.3066336 22.0844286,29.0517895 22.0844286,28.7384267 L22.0844286,24.9859319 L18.3068571,24.9859319 L18.3068571,28.7384267 C18.3068571,29.0517895 18.0472857,29.3066336 17.7282857,29.3066336 L16.5505714,29.3066336 L16.5505714,49.1384423 Z M32.3538571,49.1384423 L33.5315714,49.1384423 C33.8504286,49.1384423 34.11,49.3934267 34.1101429,49.7067895 L34.1101429,54.9653342 L37.8877143,54.9653342 L37.8877143,49.7066492 C37.8877143,49.3932864 38.1472857,49.1384423 38.4662857,49.1384423 L39.644,49.1384423 L39.644,29.3066336 L38.4662857,29.3066336 C38.1472857,29.3066336 37.8877143,29.0517895 37.8877143,28.7384267 L37.8877143,24.9859319 L34.1101429,24.9859319 L34.1101429,28.7384267 C34.1101429,29.0517895 33.8505714,29.3066336 33.5315714,29.3066336 L32.3538571,29.3066336 L32.3538571,49.1384423 Z M48.157,49.1384423 L49.3347143,49.1384423 C49.6537143,49.1384423 49.9132857,49.3932864 49.9132857,49.7066492 L49.9132857,54.9653342 L53.6908571,54.9653342 L53.6908571,49.7066492 C53.6908571,49.3932864 53.9504286,49.1384423 54.2694286,49.1384423 L55.4471429,49.1384423 L55.4471429,29.3066336 L54.2694286,29.3066336 C53.9504286,29.3066336 53.6908571,29.0517895 53.6908571,28.7384267 L53.6908571,24.9859319 L49.9132857,24.9859319 L49.9132857,28.7384267 C49.9132857,29.0517895 49.6537143,29.3066336 49.3347143,29.3066336 L48.157,29.3066336 L48.157,49.1384423 Z M6.99357143,56.1018883 C5.18985714,56.1018883 3.59214286,57.2312853 3.01771429,58.91233 L2.76485714,59.6523041 L69.2327143,59.6523041 L68.9798571,58.9121897 C68.4052857,57.2312853 66.8074286,56.1018883 65.004,56.1018883 L6.99357143,56.1018883 Z M1.159,66.2312386 L70.8387143,66.2312386 L70.8387143,60.7889984 L1.159,60.7889984 L1.159,66.2312386 Z M0.580571429,67.3680733 C0.261571429,67.3680733 0.002,67.1130889 0.002,66.7995858 L0.002,60.2205109 C0.002,59.9071481 0.261571429,59.6523041 0.580571429,59.6523041 L1.65471429,59.6523041 L1.74585714,59.1997313 C2.15714286,57.1557864 3.76157143,55.5430837 5.83342857,55.0913529 L6.281,54.9935411 L6.281,49.7067895 C6.281,49.3934267 6.54057143,49.1385826 6.85957143,49.1385826 L8.03728571,49.1385826 L8.03728571,29.3067739 L6.85957143,29.3067739 C6.54057143,29.3067739 6.281,29.0519298 6.281,28.7384267 L6.281,24.9860722 L2.17142857,24.9860722 C1.19985714,24.9860722 0.387142857,24.3968155 0.101,23.4847937 C-0.185285714,22.5727718 0.148714286,21.6361918 0.951571429,21.0987178 L29.1824286,2.20461175 C31.2004286,0.854190748 33.5574286,0.140318607 35.9987143,0.140318607 C38.4401429,0.140318607 40.7971429,0.854190748 42.8148571,2.20461175 L71.0461429,21.0985774 C71.849,21.6360515 72.1828571,22.5726315 71.8965714,23.4846533 C71.6105714,24.3966752 70.7978571,24.9859319 69.8262857,24.9859319 L65.7167143,24.9859319 L65.7167143,28.7384267 C65.7167143,29.0517895 65.4571429,29.3066336 65.1381429,29.3066336 L63.9604286,29.3066336 L63.9604286,49.1384423 L65.1381429,49.1384423 C65.4571429,49.1384423 65.7167143,49.3932864 65.7167143,49.7066492 L65.7167143,54.9935411 L66.1642857,55.0913529 C68.2361429,55.5430837 69.8405714,57.1557864 70.2518571,59.1997313 L70.3428571,59.6523041 L71.4171429,59.6523041 C71.7361429,59.6523041 71.9957143,59.9071481 71.9957143,60.2205109 L71.9957143,66.7995858 C71.9957143,67.1130889 71.7361429,67.3680733 71.4171429,67.3680733 L0.580571429,67.3680733 Z" id="Fill-3" stroke-width="0.400000006"></path>
                        </g>
                    </g>
                </g>
            </g>
        </g>
    </g>
</svg>