<?xml version="1.0" encoding="UTF-8"?>
<svg width="52px" height="72px" viewBox="0 0 52 72" version="1.1" xmlns="http://www.w3.org/2000/svg" xmlns:xlink="http://www.w3.org/1999/xlink">
    <!-- Generator: Sketch 48.2 (47327) - http://www.bohemiancoding.com/sketch -->
    <title>upload-photo</title>
    <desc>Created with Sketch.</desc>
    <defs>
        <polygon id="path-1" points="3.15083934e-05 0 51.5862515 0 51.5862515 71.9999857 3.15083934e-05 71.9999857"></polygon>
    </defs>
    <g id="home" stroke="none" stroke-width="1" fill="none" fill-rule="evenodd" transform="translate(-404.000000, -2350.000000)">
        <g id="a/c-type" transform="translate(300.000000, 2006.000000)">
            <g id="Group-8" transform="translate(0.000000, 314.000000)">
                <g id="Group-7" transform="translate(0.000000, 30.000000)">
                    <g id="upload-photo" transform="translate(94.000000, 0.000000)">
                        <rect id="Rectangle-14" x="0" y="0" width="72" height="72"></rect>
                        <g id="Page-1" transform="translate(10.000000, 0.000000)">
                            <mask id="mask-2" fill="white">
                                <use xlink:href="#path-1"></use>
                            </mask>
                            <g id="Clip-2"></g>
                            <path d="M37.4420571,47.1762714 L37.6503429,46.5091286 L37.4424857,47.1768429 L37.4420571,47.1762714 Z M37.4527714,47.1929857 L37.4999143,47.0694143 L37.4600571,47.2045571 L37.4527714,47.1929857 Z M11.4674857,20.1354143 C10.0406286,20.5594143 9.11862857,21.6372714 9.11862857,22.8811286 C9.11862857,24.1247 10.0406286,25.2024143 11.4674857,25.6262714 L12.2016286,25.8445571 L12.2016286,19.9171286 L11.4674857,20.1354143 Z M39.4659143,25.8447 L40.2002,25.6262714 C41.6270571,25.2022714 42.5489143,24.1245571 42.5489143,22.8805571 C42.5489143,21.6371286 41.6270571,20.5595571 40.2002,20.1354143 L39.4659143,19.9171286 L39.4659143,25.8447 Z M25.6303429,12.3891286 C21.7734857,12.3891286 17.8950571,13.3182714 14.4142,15.0764143 C13.6663429,15.4539857 13.2017714,16.2109857 13.2017714,17.0519857 L13.2017714,27.2879857 C13.2017714,30.7954143 14.6567714,34.1958429 17.1936286,36.6172714 C19.5852,38.8998429 22.5456286,40.1064143 25.7544857,40.1064143 C28.9713429,40.1064143 32.1742,38.8339857 34.5417714,36.6155571 C37.0722,34.2445571 38.4656286,30.9982714 38.4656286,27.4748429 L38.4656286,17.2314143 C38.4656286,16.3978429 38.0037714,15.6418429 37.2600571,15.2582714 C33.5680571,13.3544143 29.6552,12.3891286 25.6303429,12.3891286 Z M20.7542,42.1528429 L25.8123429,46.6971286 L30.8322,42.1871286 L30.8322,40.1917 L30.0837714,40.4355571 C28.7174857,40.8808429 27.2866286,41.1064143 25.8312,41.1064143 C24.3429143,41.1064143 22.8879143,40.8724143 21.5066286,40.4108429 L20.7542,40.1594143 L20.7542,42.1528429 Z M26.6017714,47.3322714 L29.4797714,49.4669857 L33.9847714,44.8077 L31.3757714,43.0432714 L26.6017714,47.3322714 Z M17.6403429,44.8081286 L22.1447714,49.4671286 L25.0229143,47.3324143 L20.2484857,43.0432714 L17.6403429,44.8081286 Z M23.1842,49.9412714 L24.2287714,52.3567 L27.3576286,52.3567 L28.4023429,49.9412714 L25.7932,48.0088429 L23.1842,49.9412714 Z M15.7096286,45.5777 L15.9392,46.1594143 C17.5636286,50.2722714 19.7783429,53.2321286 22.3443429,54.7188429 L23.0810571,55.1457 L23.3857714,52.9274143 L22.4017714,50.6522714 L22.0546286,50.6284143 C21.8504857,50.6142714 21.7992,50.5818429 20.9379143,49.6592714 C20.4192,49.1035571 19.6353429,48.2639857 18.3934857,47.0259857 L16.7090571,45.2837 L15.7096286,45.5777 Z M29.8942,50.4774143 C29.8747714,50.4975571 29.8366286,50.5285571 29.8197714,50.5402714 C29.7963429,50.5564143 29.7643429,50.5744143 29.7364857,50.5867 C29.7083429,50.5989857 29.6784857,50.6088429 29.6463429,50.6164143 C29.6117714,50.6242714 29.5884857,50.6272714 29.5520571,50.6284143 L29.1900571,50.6401286 L28.2179143,52.8875571 L28.5504857,55.3111286 L29.2662,54.9477 C31.9460571,53.5871286 34.3544857,50.5089857 36.0474857,46.2802714 L36.2807714,45.6972714 L34.9072,45.2922714 L29.8942,50.4774143 Z M24.0442,55.4832714 L24.5589143,55.5968429 C25.0539143,55.7059857 25.5282,55.7589857 26.0090571,55.7589857 C26.3403429,55.7589857 26.6816286,55.7328429 27.0229143,55.6809857 L27.5800571,55.5964143 L27.2726286,53.3571286 L24.3362,53.3571286 L24.0442,55.4832714 Z M7.46748571,70.9739857 C8.07262857,70.9739857 8.65034286,70.9822714 9.23348571,70.9992714 L9.82162857,71.0164143 L9.82162857,60.3292714 C9.82162857,56.9917 9.0702,52.2618429 6.96134286,48.9958429 L6.61748571,48.4632714 L6.12334286,48.8605571 C5.09491429,49.6869857 4.4372,50.7902714 4.16791429,52.1394143 L1.04877143,67.8042714 L1.04634286,67.8219857 C0.968342857,68.4022714 0.930342857,69.4828429 1.5542,70.2014143 C2.20362857,70.9492714 3.24205714,71.0101286 4.43248571,71.0099857 C4.78105714,71.0099857 5.16048571,71.0031286 5.59991429,70.9951286 C6.14577143,70.9851286 6.76434286,70.9739857 7.46748571,70.9739857 Z M41.7677714,60.6094143 C41.7670571,61.3085571 41.7647714,63.5482714 41.7647714,70.4282714 L41.7647714,71.0167 L42.3529143,70.9994143 C42.9307714,70.9825571 43.5034857,70.9742714 44.1033429,70.9742714 C44.8086286,70.9742714 45.4296286,70.9857 45.9774857,70.9958429 C46.4193429,71.0039857 46.8007714,71.0109857 47.1512,71.0109857 C48.3429143,71.0109857 49.3820571,70.9501286 50.0322,70.2014143 C50.6560571,69.4829857 50.6180571,68.4025571 50.5399143,67.8222714 L50.5374857,67.8045571 L47.4184857,52.1391286 C47.1493429,50.7902714 46.4916286,49.6871286 45.4633429,48.8605571 L44.9693429,48.4634143 L44.6253429,48.9955571 C41.6774857,53.5559857 41.7634857,60.2534143 41.7647714,60.3205571 C41.7652,60.3407 41.7663429,60.3604143 41.7680571,60.3795571 C41.7680571,60.4238429 41.7679143,60.4959857 41.7677714,60.6094143 Z M3.83848571,71.9999857 C2.4992,71.9999857 1.44491429,71.6008429 0.7892,70.8458429 C0.124628571,70.0805571 -0.127228571,68.9757 0.0603428571,67.6501286 L0.0610571429,67.6461286 C0.0772,67.5604143 0.188057143,67.0045571 0.695628571,64.4554143 L3.18705714,51.9437 C3.76462857,49.0508429 5.69734286,47.6945571 7.21705714,47.0661286 C7.24862857,47.0529857 7.26977143,47.0434143 7.28891429,47.0349857 C7.40548571,46.9827 7.68862857,46.8992714 11.1533429,45.8785571 C12.4613429,45.4932714 14.2212,44.9748429 16.5954857,44.2745571 L16.6804857,44.2494143 L19.7540571,42.1707 L19.7540571,39.6538429 L19.4549143,39.4917 C14.9809143,37.0667 12.2016286,32.3905571 12.2016286,27.2879857 L12.2016286,26.8124143 L11.7340571,26.7148429 C9.63677143,26.3274143 8.11448571,24.7148429 8.11448571,22.8807 C8.11448571,22.1418429 8.35948571,21.4201286 8.82277143,20.7938429 L8.94877143,20.6235571 L8.9332,20.4121286 C8.93077143,20.3484143 8.93091429,19.8351286 8.93105714,18.9849857 C8.9312,18.4554143 8.93134286,17.7687 8.93077143,16.9024143 C8.93077143,14.3228429 9.49762857,11.8454143 10.6153429,9.53898571 C10.6996286,9.36498571 10.8723429,9.25684286 11.0660571,9.25684286 C11.1414857,9.25684286 11.2144857,9.27398571 11.2834857,9.30727143 C11.5314857,9.42755714 11.6354857,9.72727143 11.5153429,9.97555714 C9.85348571,13.4035571 9.90748571,16.3367 9.93662857,17.9124143 C9.94305714,18.2649857 9.94862857,18.5694143 9.93277143,18.7718429 L9.85934286,19.6998429 L10.7199143,19.3452714 C11.0437714,19.2118429 11.3850571,19.1115571 11.7342,19.0471286 L12.2017714,18.9607 L12.2017714,17.0518429 C12.2017714,15.8314143 12.8767714,14.7325571 13.9632,14.1838429 C16.0313429,13.1389857 20.3109143,11.3865571 25.7373429,11.3865571 C29.8490571,11.3865571 33.8800571,12.3901286 37.7187714,14.3695571 C39.5662,15.3221286 39.4994857,17.0967 39.4637714,18.0501286 C39.4546286,18.2928429 39.4486286,18.4532714 39.4769143,18.5962714 L39.5523429,18.9767 L39.9336286,19.0471286 C40.2837714,19.1117 40.6247714,19.2119857 40.9476286,19.3451286 L41.7369143,19.6708429 L41.7369143,16.9028429 C41.7369143,8.13398571 34.6029143,1.00012857 25.8340571,1.00012857 C21.4453429,1.00012857 17.3593429,2.74898571 14.3283429,5.92441429 C14.2330571,6.02427143 14.1046286,6.07912857 13.9666286,6.07912857 C13.8374857,6.07912857 13.7147714,6.03012857 13.6212,5.94084286 C13.5247714,5.8487 13.4697714,5.72427143 13.4666286,5.5907 C13.4634857,5.45727143 13.5126286,5.33055714 13.6049143,5.23384286 C16.8262,1.8587 21.1692,-1.42857143e-05 25.8339143,-1.42857143e-05 C35.1540571,-1.42857143e-05 42.7367714,7.5827 42.7370571,16.9029857 C42.7364857,18.0709857 42.7366286,18.8557 42.7366286,19.3832714 C42.7367714,20.0787 42.7367714,20.3667 42.7343429,20.4167 L42.7242,20.6207 L42.8450571,20.7938429 C43.3083429,21.4201286 43.5533429,22.1418429 43.5533429,22.8809857 C43.5533429,24.7149857 42.0310571,26.3275571 39.9336286,26.7149857 L39.4660571,26.8012714 L39.4660571,27.4748429 C39.4660571,32.5839857 36.6589143,37.2195571 32.1400571,39.5722714 L31.8324857,39.7325571 L31.8324857,42.1449857 L34.9742,44.2694143 C34.9742,44.2694143 38.9059143,45.4288429 40.1712,45.8015571 C43.8733429,46.8924143 44.1757714,46.9815571 44.2830571,47.0292714 C44.3027714,47.0379857 44.3250571,47.0479857 44.3566286,47.0608429 C46.5454857,47.9748429 47.9444857,49.6635571 48.3993429,51.9434143 L50.9107714,64.5562714 C51.4006286,67.0157 51.5089143,67.5589857 51.5253429,67.6458429 L51.5257714,67.6488429 C51.7136286,68.9757 51.4619143,70.0804143 50.7977714,70.8452714 C50.1417714,71.6005571 49.0872,71.9998429 47.7480571,71.9998429 L35.2854857,71.9998429 C35.0099143,71.9998429 34.7854857,71.7754143 34.7854857,71.4998429 C34.7854857,71.2241286 35.0099143,70.9998429 35.2854857,70.9998429 L40.7646286,70.9998429 L40.7646286,60.3382714 C40.7602,60.0489857 40.6904857,53.4129857 43.6707714,48.6325571 L44.0683429,47.9948429 L37.7959143,46.1445571 L37.7206286,46.1057 L37.6636286,46.1057 L37.2410571,45.9807 L37.1919143,46.1055571 L37.0777714,46.1055571 L37.0232,46.5339857 C35.7032,49.8672714 34.0183429,52.4614143 32.0147714,54.2457 C30.1686286,55.8895571 28.0977714,56.7585571 26.0260571,56.7585571 C21.6162,56.7585571 17.4717714,52.8682714 14.9397714,46.3518429 L14.7494857,45.8619857 L7.51805714,47.9948429 L7.91562857,48.6327 C10.8937714,53.4098429 10.8262,60.0491286 10.8217714,60.3295571 L10.8217714,70.9999857 L30.2853429,70.9999857 C30.5610571,70.9999857 30.7853429,71.2242714 30.7853429,71.4999857 C30.7853429,71.7755571 30.5610571,71.9999857 30.2853429,71.9999857 L3.83848571,71.9999857 Z" id="Fill-1" fill="#00D3C0" mask="url(#mask-2)"></path>
                        </g>
                    </g>
                </g>
            </g>
        </g>
    </g>
</svg>