<svg width="50" height="50" viewBox="0 0 50 50" fill="none" xmlns="http://www.w3.org/2000/svg">
<rect width="50" height="50" rx="25" fill="#111111"/>
<path fill-rule="evenodd" clip-rule="evenodd" d="M25.0712 7C25.4067 7 25.6787 7.272 25.6787 7.60753V28.3506C25.6787 28.6862 25.4067 28.9582 25.0712 28.9582C24.7356 28.9582 24.4636 28.6862 24.4636 28.3506V7.60753C24.4636 7.272 24.7356 7 25.0712 7Z" fill="white"/>
<path fill-rule="evenodd" clip-rule="evenodd" d="M34.7419 26.3097L15.279 26.3097C15.2731 28.9081 15.273 32.2954 16.3877 35.1206C16.9817 36.6261 17.8825 37.9409 19.247 38.8833C20.6101 39.8246 22.4873 40.4298 25.0984 40.4298C27.7075 40.4298 29.5712 39.8146 30.9164 38.8625C32.2638 37.9088 33.1441 36.5795 33.7177 35.0622C34.7705 32.2771 34.7546 28.9752 34.7426 26.4617C34.7423 26.4107 34.7421 26.3601 34.7419 26.3097ZM31.6281 39.8269C30.0355 40.9542 27.9085 41.6198 25.0984 41.6198C22.2903 41.6198 20.1547 40.9662 18.5468 39.8558C16.9404 38.7464 15.912 37.2164 15.2543 35.5495C14.0453 32.4852 14.0561 28.8544 14.0637 26.2848C14.0643 26.0884 14.0649 25.8981 14.0649 25.7147C14.0649 25.5569 14.1289 25.4056 14.2428 25.294C14.3568 25.1824 14.5113 25.1198 14.6724 25.1198L35.3477 25.1198C35.6832 25.1198 35.9552 25.3861 35.9552 25.7147C35.9552 25.9513 35.9566 26.2011 35.9581 26.4624C35.9722 28.9479 35.9921 32.4728 34.8572 35.4754C34.2232 37.1526 33.2186 38.7012 31.6281 39.8269Z" fill="white"/>
<path fill-rule="evenodd" clip-rule="evenodd" d="M35.9609 31.8075L35.9609 42.2891C35.9609 42.6246 35.6889 42.8966 35.3534 42.8966C35.0179 42.8966 34.7459 42.6246 34.7459 42.2891L34.7459 32.4151L25.6494 32.4151L25.6494 42.2891C25.6494 42.6246 25.3774 42.8966 25.0419 42.8966C24.7063 42.8966 24.4343 42.6246 24.4343 42.2891L24.4343 32.4151L15.2779 32.4151L15.2779 42.2891C15.2779 42.6246 15.0059 42.8966 14.6704 42.8966C14.3349 42.8966 14.0629 42.6246 14.0629 42.2891L14.0629 31.8075C14.0629 31.472 14.3349 31.2 14.6704 31.2L35.3534 31.2C35.6889 31.2 35.9609 31.472 35.9609 31.8075Z" fill="white"/>
<path fill-rule="evenodd" clip-rule="evenodd" d="M14.67 14.7783C15.0056 14.7783 15.2776 15.0503 15.2776 15.3858V25.1198H34.7455V15.3858C34.7455 15.0503 35.0175 14.7783 35.353 14.7783C35.6886 14.7783 35.9606 15.0503 35.9606 15.3858V36.0688C35.9606 36.4044 35.6886 36.6764 35.353 36.6764C35.0175 36.6764 34.7455 36.4044 34.7455 36.0688V26.3349H15.2776V36.0688C15.2776 36.4044 15.0056 36.6764 14.67 36.6764C14.3345 36.6764 14.0625 36.4044 14.0625 36.0688V15.3858C14.0625 15.0503 14.3345 14.7783 14.67 14.7783Z" fill="white"/>
<path fill-rule="evenodd" clip-rule="evenodd" d="M25.0912 7.00513C25.3209 7.00593 25.5303 7.13745 25.6319 7.34465L35.8723 28.2416C36.02 28.543 35.8968 28.9078 35.597 29.0564C35.2972 29.2049 34.9345 29.081 34.7868 28.7795L25.0844 8.98062L15.2099 28.7833C15.0601 29.0837 14.6965 29.2052 14.3977 29.0545C14.099 28.9039 13.9782 28.5382 14.128 28.2378L24.5482 7.34087C24.6511 7.13439 24.8615 7.00433 25.0912 7.00513Z" fill="white"/>
<path fill-rule="evenodd" clip-rule="evenodd" d="M35.5859 11.8564C35.8127 11.9505 35.9606 12.1719 35.9606 12.4175V33.2207C35.9606 33.5562 35.6885 33.8282 35.353 33.8282C35.0175 33.8282 34.7455 33.5562 34.7455 33.2207V13.8812L25.4705 23.1291C25.2338 23.365 24.8511 23.3656 24.6138 23.1303L15.2776 13.8752V33.2207C15.2776 33.5562 15.0056 33.8282 14.67 33.8282C14.3345 33.8282 14.0625 33.5562 14.0625 33.2207V12.4175C14.0625 12.1722 14.2099 11.9511 14.4363 11.8567C14.6627 11.7624 14.9236 11.8134 15.0977 11.986L25.0403 21.8422L34.9241 11.9873C35.098 11.8139 35.3591 11.7622 35.5859 11.8564Z" fill="white"/>
</svg>
