<svg width="210" height="50" viewBox="0 0 210 50" fill="none" xmlns="http://www.w3.org/2000/svg">
<path d="M71.184 30V21.216L67.408 27.952H66.592L62.8 21.216V30H61.36V18.64H62.88L66.992 26.016L71.12 18.64H72.624V30H71.184ZM82.0004 18.64H83.2164L87.8564 30H86.3204L84.9764 26.672H80.2084L78.8804 30H77.3444L82.0004 18.64ZM84.6564 25.552L82.6084 20.304L80.4964 25.552H84.6564ZM101.708 18.64V30H100.269V24.832H94.0125V30H92.5725V18.64H94.0125V23.552H100.269V18.64H101.708ZM115.344 28.72V30H107.632V18.64H115.2V19.92H109.072V23.6H114.4V24.8H109.072V28.72H115.344ZM120.519 30V18.64H124.455C125.362 18.64 126.157 18.7893 126.839 19.088C127.533 19.3867 128.109 19.792 128.567 20.304C129.026 20.816 129.367 21.4187 129.591 22.112C129.826 22.7947 129.943 23.5253 129.943 24.304C129.943 25.168 129.815 25.952 129.559 26.656C129.303 27.3493 128.935 27.9467 128.455 28.448C127.975 28.9387 127.394 29.3227 126.711 29.6C126.039 29.8667 125.287 30 124.455 30H120.519ZM128.487 24.304C128.487 23.664 128.397 23.0773 128.215 22.544C128.045 22 127.783 21.536 127.431 21.152C127.09 20.768 126.669 20.4693 126.167 20.256C125.666 20.032 125.095 19.92 124.455 19.92H121.959V28.72H124.455C125.106 28.72 125.682 28.608 126.183 28.384C126.695 28.16 127.117 27.8507 127.447 27.456C127.789 27.0613 128.045 26.5973 128.215 26.064C128.397 25.52 128.487 24.9333 128.487 24.304ZM135.173 30V18.64H136.613V30H135.173ZM156.448 21.024C156.32 20.8747 156.149 20.7307 155.936 20.592C155.722 20.4533 155.482 20.3307 155.216 20.224C154.949 20.1067 154.656 20.016 154.336 19.952C154.026 19.8773 153.701 19.84 153.36 19.84C152.474 19.84 151.824 20.0053 151.408 20.336C151.002 20.6667 150.8 21.12 150.8 21.696C150.8 22.0053 150.858 22.2613 150.976 22.464C151.093 22.6667 151.274 22.8427 151.52 22.992C151.776 23.1307 152.09 23.2533 152.464 23.36C152.837 23.4667 153.28 23.5787 153.792 23.696C154.378 23.824 154.906 23.9733 155.376 24.144C155.856 24.304 156.261 24.5067 156.592 24.752C156.933 24.9973 157.189 25.296 157.36 25.648C157.541 26 157.632 26.432 157.632 26.944C157.632 27.488 157.525 27.9627 157.312 28.368C157.098 28.7627 156.805 29.0933 156.432 29.36C156.069 29.616 155.637 29.808 155.136 29.936C154.634 30.0533 154.09 30.112 153.504 30.112C152.629 30.112 151.797 29.9787 151.008 29.712C150.229 29.4347 149.52 29.0347 148.88 28.512L149.568 27.296C149.738 27.4773 149.957 27.6587 150.224 27.84C150.501 28.0213 150.81 28.1867 151.152 28.336C151.504 28.4747 151.877 28.592 152.272 28.688C152.677 28.7733 153.098 28.816 153.536 28.816C154.346 28.816 154.976 28.672 155.424 28.384C155.872 28.096 156.096 27.664 156.096 27.088C156.096 26.768 156.021 26.5013 155.872 26.288C155.733 26.064 155.525 25.872 155.248 25.712C154.97 25.552 154.624 25.4133 154.208 25.296C153.802 25.168 153.338 25.04 152.816 24.912C152.24 24.7733 151.733 24.624 151.296 24.464C150.858 24.304 150.49 24.112 150.192 23.888C149.904 23.664 149.685 23.392 149.536 23.072C149.386 22.752 149.312 22.368 149.312 21.92C149.312 21.376 149.413 20.896 149.616 20.48C149.818 20.064 150.101 19.712 150.464 19.424C150.826 19.136 151.258 18.9227 151.76 18.784C152.261 18.6347 152.805 18.56 153.392 18.56C154.16 18.56 154.853 18.6773 155.472 18.912C156.09 19.1467 156.64 19.4613 157.12 19.856L156.448 21.024ZM165.963 18.64H167.179L171.819 30H170.283L168.939 26.672H164.171L162.843 30H161.307L165.963 18.64ZM168.619 25.552L166.571 20.304L164.459 25.552H168.619ZM176.535 30V18.64H177.975V28.72H184.311V30H176.535ZM189.079 30V18.64H190.519V30H189.079ZM206.259 30V21.216L202.483 27.952H201.667L197.875 21.216V30H196.435V18.64H197.955L202.067 26.016L206.195 18.64H207.699V30H206.259Z" fill="black"/>
<rect width="50" height="50" rx="25" fill="#111111"/>
<path fill-rule="evenodd" clip-rule="evenodd" d="M25.0712 7C25.4067 7 25.6787 7.272 25.6787 7.60753V28.3506C25.6787 28.6862 25.4067 28.9582 25.0712 28.9582C24.7356 28.9582 24.4636 28.6862 24.4636 28.3506V7.60753C24.4636 7.272 24.7356 7 25.0712 7Z" fill="white"/>
<path fill-rule="evenodd" clip-rule="evenodd" d="M34.7419 26.3097L15.279 26.3097C15.2731 28.9081 15.273 32.2954 16.3877 35.1206C16.9817 36.6261 17.8825 37.9409 19.247 38.8833C20.6101 39.8246 22.4873 40.4298 25.0984 40.4298C27.7075 40.4298 29.5712 39.8146 30.9164 38.8625C32.2638 37.9088 33.1441 36.5795 33.7177 35.0622C34.7705 32.2771 34.7546 28.9752 34.7426 26.4617C34.7423 26.4107 34.7421 26.3601 34.7419 26.3097ZM31.6281 39.8269C30.0355 40.9542 27.9085 41.6198 25.0984 41.6198C22.2903 41.6198 20.1547 40.9662 18.5468 39.8558C16.9404 38.7464 15.912 37.2164 15.2543 35.5495C14.0453 32.4852 14.0561 28.8544 14.0637 26.2848C14.0643 26.0884 14.0649 25.8981 14.0649 25.7147C14.0649 25.5569 14.1289 25.4056 14.2428 25.294C14.3568 25.1824 14.5113 25.1198 14.6724 25.1198L35.3477 25.1198C35.6832 25.1198 35.9552 25.3861 35.9552 25.7147C35.9552 25.9513 35.9566 26.2011 35.9581 26.4624C35.9722 28.9479 35.9921 32.4728 34.8572 35.4754C34.2232 37.1526 33.2186 38.7012 31.6281 39.8269Z" fill="white"/>
<path fill-rule="evenodd" clip-rule="evenodd" d="M35.9609 31.8075L35.9609 42.2891C35.9609 42.6246 35.6889 42.8966 35.3534 42.8966C35.0179 42.8966 34.7459 42.6246 34.7459 42.2891L34.7459 32.4151L25.6494 32.4151L25.6494 42.2891C25.6494 42.6246 25.3774 42.8966 25.0419 42.8966C24.7063 42.8966 24.4343 42.6246 24.4343 42.2891L24.4343 32.4151L15.2779 32.4151L15.2779 42.2891C15.2779 42.6246 15.0059 42.8966 14.6704 42.8966C14.3349 42.8966 14.0629 42.6246 14.0629 42.2891L14.0629 31.8075C14.0629 31.472 14.3349 31.2 14.6704 31.2L35.3534 31.2C35.6889 31.2 35.9609 31.472 35.9609 31.8075Z" fill="white"/>
<path fill-rule="evenodd" clip-rule="evenodd" d="M14.67 14.7783C15.0056 14.7783 15.2776 15.0503 15.2776 15.3858V25.1198H34.7455V15.3858C34.7455 15.0503 35.0175 14.7783 35.353 14.7783C35.6886 14.7783 35.9606 15.0503 35.9606 15.3858V36.0688C35.9606 36.4044 35.6886 36.6764 35.353 36.6764C35.0175 36.6764 34.7455 36.4044 34.7455 36.0688V26.3349H15.2776V36.0688C15.2776 36.4044 15.0056 36.6764 14.67 36.6764C14.3345 36.6764 14.0625 36.4044 14.0625 36.0688V15.3858C14.0625 15.0503 14.3345 14.7783 14.67 14.7783Z" fill="white"/>
<path fill-rule="evenodd" clip-rule="evenodd" d="M25.0912 7.00513C25.3209 7.00593 25.5303 7.13745 25.6319 7.34465L35.8723 28.2416C36.02 28.543 35.8968 28.9078 35.597 29.0564C35.2972 29.2049 34.9345 29.081 34.7868 28.7795L25.0844 8.98062L15.2099 28.7833C15.0601 29.0837 14.6965 29.2052 14.3977 29.0545C14.099 28.9039 13.9782 28.5382 14.128 28.2378L24.5482 7.34087C24.6511 7.13439 24.8615 7.00433 25.0912 7.00513Z" fill="white"/>
<path fill-rule="evenodd" clip-rule="evenodd" d="M35.5859 11.8564C35.8127 11.9505 35.9606 12.1719 35.9606 12.4175V33.2207C35.9606 33.5562 35.6885 33.8282 35.353 33.8282C35.0175 33.8282 34.7455 33.5562 34.7455 33.2207V13.8812L25.4705 23.1291C25.2338 23.365 24.8511 23.3656 24.6138 23.1303L15.2776 13.8752V33.2207C15.2776 33.5562 15.0056 33.8282 14.67 33.8282C14.3345 33.8282 14.0625 33.5562 14.0625 33.2207V12.4175C14.0625 12.1722 14.2099 11.9511 14.4363 11.8567C14.6627 11.7624 14.9236 11.8134 15.0977 11.986L25.0403 21.8422L34.9241 11.9873C35.098 11.8139 35.3591 11.7622 35.5859 11.8564Z" fill="white"/>
</svg>
